# xmcd
#
# Track frame offsets: 
#        150
#        18400
#        36433
#        54974
#        77259
#        103438
#        122433
#        137736
#        161316
#        177448
#        194384
#        209467
#        228085
#
# Disc length: 3224 seconds
#
# Revision: 0
# Processed by: cddbd v1.5.2PL0 Copyright (c) Steve Scherf et al.
# Submitted via: ExactAudioCopy v0.95b3
#
DISCID=a50c960d
DTITLE=SheJus Greedy - Natural World
DYEAR=2012
DGENRE=Soul Blues
TTITLE0=Beetle Juice
TTITLE1=Pick Up Your Change
TTITLE2=Shame On You
TTITLE3=Natural World
TTITLE4=Don't Change Horses
TTITLE5=Addiction
TTITLE6=That Ain't Right
TTITLE7=Payin' Dues
TTITLE8=At The Bar
TTITLE9=The Burn
TTITLE10=Mail Man
TTITLE11=Protecting You
TTITLE12=Troubled Water
EXTD=
EXTT0=
EXTT1=
EXTT2=
EXTT3=
EXTT4=
EXTT5=
EXTT6=
EXTT7=
EXTT8=
EXTT9=
EXTT10=
EXTT11=
EXTT12=
PLAYORDER=
